<?xml version="1.0" encoding="utf-8"?><!-- Uploaded to: SVG Repo, www.svgrepo.com, Generator: SVG Repo Mixer Tools -->
<svg fill="#000000" width="800px" height="800px" viewBox="0 0 24 24" id="acrobatic" data-name="Flat Color" xmlns="http://www.w3.org/2000/svg" class="icon flat-color"><path id="primary" d="M18,11a1,1,0,0,1-.67-.26L15.42,9H11.36L8.51,10a1,1,0,0,1-1-.24L5.59,7.8A1.94,1.94,0,0,1,5.05,6,2,2,0,0,1,6.3,4.52l6.54-2.46a1,1,0,0,1,.71,1.88L7,6.39,8.47,7.86l2.26-.76a2.19,2.19,0,0,1,.63-.1h4.06a2,2,0,0,1,1.35.52l1.9,1.74A1,1,0,0,1,18,11Z" style="fill: rgb(0, 0, 0);"></path><path id="secondary" d="M10.78,16.67a1.52,1.52,0,0,1-.42-.06,5.73,5.73,0,0,1-3.89-7l.18-.66a1.5,1.5,0,0,1,2.89.81l-.18.66a2.71,2.71,0,0,0,1.85,3.32,1.5,1.5,0,0,1-.43,2.94Z" style="fill: rgb(44, 169, 188);"></path><path id="primary-2" data-name="primary" d="M13,17a3,3,0,1,0-3-3v6a2,2,0,0,0,2,2h1a1,1,0,0,0,0-2H12V16.82A3,3,0,0,0,13,17Z" style="fill: rgb(0, 0, 0);"></path></svg>