<?xml version="1.0" encoding="iso-8859-1"?>
<!-- Uploaded to: SVG Repo, www.svgrepo.com, Generator: SVG Repo Mixer Tools -->
<svg version="1.1" id="Layer_1" xmlns="http://www.w3.org/2000/svg" xmlns:xlink="http://www.w3.org/1999/xlink" 
	 viewBox="0 0 393.374 393.374" xml:space="preserve">
<circle style="fill:#F0582F;" cx="196.687" cy="196.655" r="196.655"/>
<path style="fill:#F1F3F7;" d="M329.665,204.606l-24.372,13.188c0,0,0,0.065,0.065,0.065h-0.065h0.065
	c0.646,1.164,13.059,25.729,2.263,43.701c-8.404,14.028-29.608,22.303-61.802,24.436l-22.368-8.986l-25.6,100.59L172.38,277.01
	l-22.303,8.986c-32.259-2.069-53.527-10.408-61.931-24.436c-10.731-17.972,1.616-42.473,2.263-43.701h0.065h-0.065
	c0,0,0-0.065,0.065-0.065l-24.372-13.188c-0.905,1.616-20.881,39.046-1.875,71.111c13.059,22.109,40.598,34.78,81.778,37.947v73.051
	c16.162,4.331,33.164,6.659,50.683,6.659c18.489,0,36.267-2.65,53.139-7.37V313.6c41.115-3.168,68.525-15.838,81.584-37.948
	C350.545,243.653,330.57,206.222,329.665,204.606z"/>
<polygon style="fill:#6EB1E1;" points="197.915,377.6 223.257,277.721 211.297,265.956 197.915,265.956 197.915,265.956 
	184.533,265.956 172.574,277.721 197.915,377.6 197.915,377.6 "/>
<polygon style="fill:#F6CEB0;" points="66.36,206.416 51.879,190.061 56.986,156.638 65.39,164.978 69.98,190.061 75.152,182.691 
	81.164,183.337 94.675,208.679 89.956,218.893 "/>
<polygon style="fill:#414753;" points="172.444,277.01 197.915,377.6 159.386,315.345 167.337,305.713 153.309,295.24 "/>
<polygon style="fill:#F6CEB0;" points="329.6,206.416 343.952,190.061 338.844,156.638 330.505,164.978 325.915,190.061 
	320.679,182.691 314.667,183.337 301.22,208.679 305.875,218.893 "/>
<polygon style="fill:#414753;" points="223.515,277.01 197.915,377.6 236.509,315.345 228.493,305.713 242.586,295.24 "/>
<ellipse style="fill:#393D47;" cx="197.915" cy="216.178" rx="51.911" ry="53.786"/>
<ellipse style="fill:#F6CEB0;" cx="197.915" cy="242.295" rx="30.578" ry="38.141"/>
<path style="fill:#F8B517;" d="M188.671,230.335c-1.939-1.099-3.297-3.038-3.297-5.236l-0.84-3.685l-0.84,3.685
	c0,2.263-1.293,4.202-3.297,5.236c-1.939,1.099-3.168,2.715-3.168,4.655s1.228,3.62,3.168,4.655
	c1.939,1.099,3.297,3.038,3.297,5.236l0.84,3.685l0.84-3.685c0-2.263,1.293-4.202,3.297-5.236c1.939-1.099,3.168-2.715,3.168-4.655
	S190.61,231.37,188.671,230.335z"/>
<circle style="fill:#333842;" cx="184.533" cy="234.99" r="2.521"/>
<path style="fill:#F8B517;" d="M215.434,230.335c-1.939-1.099-3.297-3.038-3.297-5.236l-0.84-3.685l-0.84,3.685
	c0,2.263-1.293,4.202-3.297,5.236c-1.939,1.099-3.168,2.715-3.168,4.655s1.228,3.62,3.168,4.655
	c1.939,1.099,3.297,3.038,3.297,5.236l0.84,3.685l0.84-3.685c0-2.263,1.293-4.202,3.297-5.236c1.939-1.099,3.168-2.715,3.168-4.655
	S217.309,231.37,215.434,230.335z"/>
<circle style="fill:#333842;" cx="211.297" cy="234.99" r="2.521"/>
<ellipse style="fill:#FFFFFC;" cx="197.915" cy="262.4" rx="16.743" ry="12.347"/>
<circle style="fill:#F0582F;" cx="197.915" cy="250.053" r="7.628"/>
<path style="fill:#646B79;" d="M197.915,270.093c-10.731,0-19.459-6.659-19.459-14.739c0-1.099,0.84-1.939,1.939-1.939
	s1.939,0.84,1.939,1.939c0,6.012,7.046,10.925,15.58,10.925c8.598,0,15.58-4.848,15.58-10.925c0-1.099,0.84-1.939,1.939-1.939
	s1.939,0.84,1.939,1.939C217.374,263.434,208.646,270.093,197.915,270.093z"/>
<g>
	<path style="fill:#F1F3F7;" d="M92.8,116.105c-3.297,6.206-5.883,12.671-7.628,19.394l-3.814,14.481
		c-1.745,6.723-4.331,13.317-7.628,19.394l-4.784,8.792c-1.487,2.78-0.453,6.206,2.327,7.758c2.78,1.487,6.206,0.453,7.758-2.327
		l4.784-8.792c3.297-6.206,7.434-11.895,12.024-17.002l10.02-11.055c4.719-5.172,8.727-10.925,12.024-17.002l1.034-1.875
		l-25.212-13.576L92.8,116.105z"/>
	<path style="fill:#F1F3F7;" d="M130.618,106.408c3.814-6.982,1.164-15.58-5.818-19.394c-6.982-3.814-15.58-1.164-19.394,5.818
		l-1.745,3.297l25.212,13.576L130.618,106.408z"/>
</g>
<rect x="100.99" y="97.653" transform="matrix(0.4761 -0.8794 0.8794 0.4761 -40.1282 156.5233)" style="fill:#FBD303;" width="20.622" height="28.574"/>
<g>
	<path style="fill:#F1F3F7;" d="M192.485,83.653c-5.172-4.719-10.925-8.727-17.002-12.024l-13.123-7.111
		c-6.206-3.297-11.895-7.37-17.002-12.024l-7.434-6.723c-2.327-2.069-5.947-1.939-8.016,0.388c-2.069,2.327-1.939,5.947,0.388,8.016
		l7.434,6.723c5.172,4.719,9.762,10.02,13.705,15.838l8.339,12.412c3.879,5.818,8.469,11.119,13.705,15.838l1.552,1.422
		l19.265-21.204L192.485,83.653z"/>
	<path style="fill:#F1F3F7;" d="M192.808,122.699c5.883,5.301,14.933,4.848,20.234-0.905s4.848-14.933-0.905-20.234l-2.78-2.521
		l-19.329,21.204L192.808,122.699z"/>
</g>
<rect x="181.745" y="88.324" transform="matrix(0.7399 0.6727 -0.6727 0.7399 118.9791 -102.5092)" style="fill:#FBD303;" width="20.622" height="28.573"/>
<g>
	<path style="fill:#F1F3F7;" d="M242.457,67.362c-1.487,6.788-2.004,13.834-1.745,20.816l0.517,14.933
		c0.259,6.982-0.388,13.964-1.745,20.816l-2.069,9.826c-0.646,3.103,1.293,6.077,4.396,6.723c3.103,0.646,6.077-1.293,6.723-4.396
		l2.069-9.826c1.487-6.788,3.685-13.446,6.723-19.782l6.465-13.446c3.038-6.271,5.236-12.929,6.723-19.782l0.453-2.069
		l-28.057-5.818L242.457,67.362z"/>
	<path style="fill:#F1F3F7;" d="M275.879,47.257c1.616-7.758-3.297-15.321-11.055-16.937c-7.758-1.616-15.321,3.297-16.937,11.055
		l-0.776,3.685l28.057,5.883L275.879,47.257z"/>
</g>
<rect x="248.688" y="43.799" transform="matrix(0.205 -0.9788 0.9788 0.205 149.0544 299.6783)" style="fill:#FBD303;" width="20.623" height="28.575"/>
<g>
	<path style="fill:#F1F3F7;" d="M301.22,173.188c6.077-3.232,11.636-7.24,16.743-11.83l10.796-9.826
		c5.107-4.655,10.667-8.598,16.743-11.83l8.727-4.719c2.715-1.487,3.685-4.784,2.133-7.499c-1.552-2.651-5.042-3.62-7.758-2.133
		l-8.727,4.719c-6.077,3.232-12.541,5.818-19.265,7.564l-14.352,3.814c-6.723,1.745-13.188,4.331-19.265,7.564l-1.875,1.034
		l14.222,24.242L301.22,173.188z"/>
	<path style="fill:#F1F3F7;" d="M263.984,161.422c-6.853,3.685-9.244,12.154-5.301,18.877c3.943,6.723,12.671,9.115,19.523,5.43
		l3.297-1.745l-14.222-24.242L263.984,161.422z"/>
</g>
<polygon style="fill:#FBD303;" points="281.438,183.855 299.41,174.158 285.188,149.915 267.216,159.612 "/>
</svg>